<?xml version="1.0" encoding="utf-8"?>
<!-- Generator: Adobe Illustrator 22.0.1, SVG Export Plug-In . SVG Version: 6.00 Build 0)  -->
<svg version="1.1" id="Layer_1" xmlns="http://www.w3.org/2000/svg" xmlns:xlink="http://www.w3.org/1999/xlink" x="0px" y="0px"
	 width="239px" height="200px"
	 viewBox="0 0 238.5 200" style="enable-background:new 0 0 238.5 200;" xml:space="preserve">
<style type="text/css">
	.st0{fill-rule:evenodd;clip-rule:evenodd;fill:#FDCE07;}
	.st1{fill:#F0852E;}
	.st2{fill-rule:evenodd;clip-rule:evenodd;}
	.st3{fill:#FDCE07;}
</style>
<g>
	<path d="M37.7,184.9v-3.3c0.6,0.5,1.2,0.9,1.9,1.1c0.7,0.3,1.4,0.4,2.1,0.4c0.4,0,0.8,0,1.1-0.1c0.3-0.1,0.6-0.2,0.8-0.3
		c0.2-0.1,0.4-0.3,0.5-0.5c0.1-0.2,0.2-0.4,0.2-0.6c0-0.3-0.1-0.5-0.2-0.8c-0.2-0.2-0.4-0.4-0.7-0.6c-0.3-0.2-0.6-0.4-1-0.6
		c-0.4-0.2-0.8-0.4-1.3-0.5c-1.2-0.5-2-1.1-2.6-1.8c-0.6-0.7-0.8-1.5-0.8-2.5c0-0.8,0.2-1.4,0.5-2c0.3-0.6,0.7-1,1.3-1.4
		c0.5-0.4,1.1-0.6,1.8-0.8c0.7-0.2,1.4-0.3,2.2-0.3c0.8,0,1.5,0,2,0.1c0.6,0.1,1.1,0.2,1.6,0.4v3.1c-0.2-0.2-0.5-0.3-0.8-0.5
		c-0.3-0.1-0.6-0.2-0.9-0.3c-0.3-0.1-0.6-0.1-0.9-0.2c-0.3,0-0.6-0.1-0.9-0.1c-0.4,0-0.7,0-1,0.1c-0.3,0.1-0.6,0.2-0.8,0.3
		c-0.2,0.1-0.4,0.3-0.5,0.5c-0.1,0.2-0.2,0.4-0.2,0.6c0,0.2,0.1,0.5,0.2,0.7c0.1,0.2,0.3,0.4,0.6,0.6c0.2,0.2,0.5,0.3,0.9,0.5
		c0.3,0.2,0.7,0.3,1.2,0.5c0.6,0.2,1.1,0.5,1.6,0.8c0.5,0.3,0.9,0.6,1.2,0.9c0.3,0.4,0.6,0.7,0.8,1.2c0.2,0.4,0.3,1,0.3,1.6
		c0,0.8-0.2,1.5-0.5,2.1c-0.3,0.6-0.7,1-1.3,1.4c-0.5,0.3-1.2,0.6-1.9,0.7c-0.7,0.2-1.5,0.2-2.3,0.2c-0.8,0-1.6-0.1-2.3-0.2
		C38.8,185.4,38.2,185.2,37.7,184.9"/>
	<path d="M63.2,185.5h-3.6l-1.1-3.3h-5.3l-1,3.3h-3.6l5.4-14.8H58L63.2,185.5z M57.8,179.7l-1.6-5c-0.1-0.4-0.2-0.8-0.2-1.3h-0.1
		c0,0.4-0.1,0.9-0.3,1.3l-1.6,5H57.8z"/>
	<path d="M78.4,185.5H75l-6.1-9.3c-0.4-0.5-0.6-1-0.7-1.2h0c0.1,0.5,0.1,1.3,0.1,2.4v8.1h-3.1v-14.8h3.6l5.9,9
		c0.3,0.4,0.5,0.8,0.7,1.2h0c-0.1-0.3-0.1-1-0.1-2v-8.2h3.1V185.5z"/>
	<path d="M94.8,185.5h-3.6l-1.1-3.3h-5.3l-1,3.3h-3.6l5.4-14.8h3.9L94.8,185.5z M89.4,179.7l-1.6-5c-0.1-0.4-0.2-0.8-0.2-1.3h-0.1
		c0,0.4-0.1,0.9-0.3,1.3l-1.6,5H89.4z"/>
	<polygon points="105.6,173.4 101.4,173.4 101.4,185.5 98.1,185.5 98.1,173.4 93.9,173.4 93.9,170.7 105.6,170.7 	"/>
	<path d="M130.4,185.5h-3.3v-8.8c0-1,0-2,0.1-3.2h-0.1c-0.2,0.9-0.3,1.6-0.5,2l-3.5,10h-2.7l-3.5-9.9c-0.1-0.3-0.3-1-0.5-2.1h-0.1
		c0.1,1.5,0.1,2.7,0.1,3.8v8.2h-3v-14.8h4.9l3,8.8c0.2,0.7,0.4,1.4,0.5,2.1h0.1c0.2-0.8,0.4-1.5,0.6-2.1l3-8.7h4.7V185.5z"/>
	<polygon points="142.7,185.5 133.8,185.5 133.8,170.7 142.3,170.7 142.3,173.4 137.1,173.4 137.1,176.7 142,176.7 142,179.4 
		137.1,179.4 137.1,182.8 142.7,182.8 	"/>
	<path d="M157.5,185.5h-3.8l-2.3-3.8c-0.2-0.3-0.3-0.5-0.5-0.8c-0.2-0.2-0.3-0.4-0.5-0.6c-0.2-0.2-0.3-0.3-0.5-0.4
		c-0.2-0.1-0.4-0.1-0.6-0.1h-0.9v5.7h-3.3v-14.8h5.3c3.6,0,5.4,1.3,5.4,4c0,0.5-0.1,1-0.2,1.4c-0.2,0.4-0.4,0.8-0.7,1.2
		c-0.3,0.4-0.6,0.7-1,0.9c-0.4,0.3-0.9,0.5-1.4,0.6v0c0.2,0.1,0.4,0.2,0.6,0.3c0.2,0.2,0.4,0.3,0.6,0.5c0.2,0.2,0.4,0.4,0.6,0.7
		c0.2,0.2,0.3,0.5,0.5,0.7L157.5,185.5z M148.4,173.2v4.1h1.4c0.7,0,1.3-0.2,1.7-0.6c0.4-0.4,0.7-0.9,0.7-1.6c0-1.3-0.8-1.9-2.3-1.9
		H148.4z"/>
	<path d="M171.2,185.5H167l-4.3-6.4c-0.1-0.1-0.2-0.4-0.4-0.8h-0.1v7.2h-3.3v-14.8h3.3v7h0.1c0.1-0.2,0.2-0.5,0.4-0.8l4.1-6.2h4
		l-5.1,7L171.2,185.5z"/>
	<polygon points="181.5,185.5 172.7,185.5 172.7,170.7 181.2,170.7 181.2,173.4 176,173.4 176,176.7 180.8,176.7 180.8,179.4 
		176,179.4 176,182.8 181.5,182.8 	"/>
	<polygon points="194.6,185.5 182.7,185.5 182.7,183.6 190.3,173.4 183.2,173.4 183.2,170.7 194.6,170.7 194.6,172.6 187.2,182.8 
		194.6,182.8 	"/>
	<path d="M200.2,185.5h-3.3v-14.8h3.3V185.5z M198.5,169.4c-0.5,0-0.8-0.1-1.1-0.4c-0.3-0.3-0.4-0.6-0.4-1c0-0.4,0.2-0.7,0.5-1
		c0.3-0.3,0.7-0.4,1.1-0.4c0.5,0,0.8,0.1,1.1,0.4c0.3,0.3,0.4,0.6,0.4,1c0,0.4-0.1,0.7-0.4,1C199.3,169.2,198.9,169.4,198.5,169.4"
		/>
	<path class="st0" d="M116.5,58.3c0,0,0.1,0.1,0.1,0.1c0.4,0.6,0.7,0.9,1.3,1.5c0.5,0.5,0.8,0.7,1.3,1.1c0.4-0.4,0.7-0.6,1.1-0.9
		c0.3-0.2,0.5-0.4,0.9-0.6c0.3,0.4,0.4,0.7,0.8,1.1c0.5,0.4,0.8,0.6,1.3,0.9c2.6-2.1,4.1-3.1,7-4.8c3.4-1.9,5.4-2.9,9-4.2
		c-0.1-0.7-0.2-1.2-0.4-1.9c-0.2-0.6-0.4-1-0.7-1.6l-0.2-0.5l1-0.6c0-0.7,0-1.2-0.2-1.9c-0.2-0.7-0.4-1.2-0.8-1.8
		c-4.4,1.8-6.7,3.2-10.7,5.7C122.8,52.8,116.5,58.3,116.5,58.3 M138.2,34.4c-5.8,2.2-9,3.7-14.4,6.7c-6.7,3.7-10.4,6.2-16.4,11.1
		c0.3,0.6,0.6,1,1,1.6c0.3,0.4,0.5,0.6,0.9,1l-0.7,1c0.6,0.5,0.9,0.9,1.4,1.4c0.5,0.5,0.7,0.7,1.2,1.2l0.5-0.7
		c0.2,0.4,0.4,0.5,0.7,0.8c0.3,0.3,0.5,0.4,0.9,0.6c4.9-4.1,7.9-6.3,13.4-9.6c4.8-2.8,7.6-4.3,12.7-6.4c-0.1-0.6-0.1-0.9-0.1-1.5
		l-0.1-1.1l1-0.2c0.5-0.1,0.9-0.2,1.4-0.3c0-0.7,0-1.2-0.2-1.9c-0.2-0.7-0.4-1.2-0.9-1.8l-1.6,0.6c-0.1-0.6-0.1-0.9-0.2-1.4
		C138.4,35,138.3,34.8,138.2,34.4 M123.9,25.9c-0.1-0.6-0.3-0.9-0.6-1.4c-0.3-0.4-0.5-0.6-1-0.8l-7.8,4.3c0.1,0.4,0.2,0.6,0.3,1
		c0.2,0.4,0.3,0.6,0.5,1l-4.9,2c0.3,0.7,0.5,1,0.8,1.7c0.4,0.6,0.6,1,1,1.6l-4.9,2.7c0.3,0.9,0.6,1.3,1.2,2c0.4,0.4,0.7,0.7,1.2,1
		l7.8-4.7l-12.5,8c0.2,0.5,0.3,0.8,0.6,1.2c0.3,0.4,0.5,0.6,0.8,1c-0.6,0.3-1,0.5-1.6,0.7c-0.4,0.2-0.7,0.3-1.1,0.4
		c0.4,0.8,0.7,1.2,1.4,1.8c0.5,0.4,0.7,0.6,1.3,0.8c5.3-3.6,8.5-5.5,14.2-8.6c6.7-3.6,10.6-5.3,17.7-8c0-1.2-0.1-1.9-0.6-3.1
		c-0.4-1-0.8-1.6-1.5-2.4l-7,2.6l3.8-2.1c0.1-0.7,0-1.2-0.2-1.9c-0.2-0.7-0.5-1-1-1.5l-3,1.6l-0.5-2.2l-4.3,1.5l-0.1-0.3V25.9z
		 M98.5,11.3c1.7-1.9,3.2-3,5.6-4.4c5.2-3,6.1-3.3,10.9-4.9c3.5-1.2,4.2-1.3,7.7-2c0.9,0.9,1.7,1.3,2.6,2.7c1,1.6,1.3,3.2,1.7,5
		l11-3.7c1,0.5,1.5,1,2.1,1.9c0.8,1.1,1.1,2,1.2,3.3l8.6-2.4c1.2,0.7,2.3,1.6,2.9,3.4c0.5,1.4,0.8,2.7,0.8,3.8
		c-1.8,0.8-3.2,1.4-5.2,2.4c-3.1,1.4-3.4,1.7-6.5,3.3c5.1-1.4,5.7-1.6,10.3-3.1c4.4-1.4,6.9-2.2,11.4-3c1.1,1.9,1.6,3.1,2.4,5.1
		c1.1,3.1,1.5,4.3,1.9,7.6c-2.2,0.7-4.2,1.3-7,2.3c-2.4,0.8-3.6,1.4-7.1,3.1c4.1-0.8,5.4-1.1,8.7-1.7c2.2-0.4,3.6-0.6,5.8-0.8
		c0.4,0.9,0.6,1.4,0.8,2.4c0.3,1.1,0.5,1.8,0.6,3l6.2-1c0.3,1.7,0.4,2.6,0.5,4.3c0,2-0.1,3.2-0.5,5.1c-1.7-0.3-2.9-0.2-4.5,0.4
		c-1.2,0.4-1.9,0.8-2.9,1.7c0.6,1.1,0.8,1.8,1,3c0.2,1.3,0.1,2-0.2,3.2c-15.8,5.1-24.5,8.6-39.4,15.9c-2,1-3.9,1.9-5.7,2.8
		c-0.1-0.6-0.1-1.1-0.2-1.8c0-1.7,0.1-2.8,0.7-4.4c-0.3-0.4-0.6-0.6-1.1-0.9c-1-0.4-1.8-0.4-2.7,0.2c0.1,1.6,0.1,2.5,0.1,4.1
		c0,1.8-0.1,2.9-0.2,4.5c-11.2,5.8-19.3,10.9-31.1,19.4l-4.5-2.7l-2.5,1.1c-1.3-1.1-2-1.8-3.2-3c-1.5-1.6-2.4-2.5-3.7-4.3l2.1-1.3
		l-5.4-6.3c2.5-2.2,4-3.3,6.7-5.3c3.5-2.5,5.6-3.8,9.4-5.7l-2.4-1.9c-2.9,1.5-4.5,2.3-7.4,3.7c-3.3,1.6-5.2,2.5-8.5,4.1l-8.2-6.7
		c1.6-1,2.6-1.5,4.4-2.1c1.9-0.7,2.9-1,4.9-1.4l-4.7-4.2c3.3-2,5.1-3.1,8.5-5c6.9-3.8,11.2-6.5,17.8-9.6l-12.6,4.1
		c-1.3-1.1-1.3-0.9-2.4-2.1c-1.5-1.6-2.1-2.8-2.7-4.9c2.6-1.8,4.6-2.9,6.5-3.9c3.4-1.8,5.2-2.4,6.8-3.2l-1.4-3.2l-1.5-4.4
		c3-1,4.8-1.5,7.8-2.6c3-1.1,4.6-1.7,7.5-2.9L98.5,11.3z"/>
	<path class="st1" d="M112.8,104.6l-2-0.6c-1.3-0.5-1.6-0.6-2.7-1.2c-1.3-0.8-1.9-1.6-2.7-2.9c-1.5,0.5-2.3,0.9-3.6,1.7
		c-1.6,1-2.5,1.7-3.8,3.1c-1.4-1.4-2.2-2.2-3.6-3.6c-1.7-1.6-2.6-2.5-4.3-4.1c14.6-12.6,23.9-18.9,41.1-27.7
		c13.6-7,21.8-10.3,36.5-14.6c1,1.5,1.4,2.5,1.9,4.3c0.6,2.4,0.7,4,0.2,6.4l-4.7,2.1l0.3,1.8l2.5-0.7c0.5,1.6,0.8,2.5,1.2,4.1
		c0.6,2.2,0.9,3.5,1.4,5.7c-5.3,1.2-9.8,2.4-14,3.7c0.1,0.3,0.2,0.7,0.3,1l2.6,6.9c-4.6,1-7.2,2-11.5,4.1c-4.6,2.3-6.4,5.7-11,7.9
		c-1.7,0.8-2.6,1-4.5,1.4c-2.4-1-3.7-1.9-5.5-3.8c-1-1.1-1.6-1.9-2.1-3C120.9,98.9,117.4,101.2,112.8,104.6"/>
	<path class="st2" d="M149.2,134.6c0-2.4-0.2-4.5-0.7-6.3c-0.5-1.8-1.3-3.5-2.6-5.1c-0.8-1.1-1.8-2-3-2.8c-1.2-0.8-2.4-1.4-3.7-1.7
		c-1.3-0.4-2.7-0.6-4.1-0.6c-3.3,0-6.2,0.9-8.7,2.7c-2.1,1.6-3.6,3.7-4.6,6.3c-0.9,2.7-1.4,5.5-1.4,8.5c0,4.8,1.2,8.6,3.7,11.5
		c1.4,1.5,2.9,2.7,4.7,3.5c1.8,0.8,3.7,1.2,5.8,1.2c2.3,0,4.5-0.5,6.5-1.6c2-1.1,3.6-2.6,4.9-4.5c1.3-1.9,2.2-4,2.6-6.3
		C149.1,137.7,149.2,136.2,149.2,134.6 M134.6,112.5c4.9,0,9,0.9,12.3,2.6c7.6,4,11.3,10.3,11.3,18.8c0,4.6-1,8.6-3,12.2
		c-2,3.5-4.8,6.2-8.4,8.2c-3.6,1.9-7.7,2.9-12.3,2.9c-4.8,0-9.1-1-12.7-3.1c-3.7-2.1-6.5-5.2-8.5-9.4c-0.5-1.2-1-2.8-1.4-5
		c-0.3-1.5-0.4-3.1-0.4-4.7c0-3.2,0.6-6.2,1.8-9c1.2-2.8,2.9-5.3,5.3-7.4c2.2-2,4.7-3.5,7.4-4.5C128.7,113,131.6,112.5,134.6,112.5"
		/>
	<path class="st2" d="M71,113.2h3.1l26.5,28.1c0,0,0.4-13.2,0-21.7c-0.2-3.8-0.5-6.4-0.5-6.4c1.6,0.1,2.1,0.3,3.8,0.3
		c1.4,0,2.1,0,4.1-0.2c0,0-0.5,2.5-0.7,4.1c-0.7,5.2-0.8,13.9-0.8,24.1c0,6.4,0.5,15,0.5,15h-4.1c-8.3-9.6-16.7-18.7-25.8-28.2
		c0,0-0.2,10.8,0,17.7c0.1,4.1,0.4,10.5,0.4,10.5s-2.3-0.2-3.7-0.2c-1.4,0-3.7,0.2-3.7,0.2s0.3-4.7,0.5-7.8c0.2-3.8,0.3-6,0.5-9.9
		C71.3,128.9,71,113.2,71,113.2"/>
	<path class="st2" d="M46.3,126.8l5.2,12H41.2L46.3,126.8z M46,113.3h3.3c5.6,13,11.1,25.9,16.7,38.8c0.6,1.5,1.4,3,2.1,4.5
		c0,0-3.8-0.4-6.2-0.3c-1.5,0-2.1,0.1-3.8,0.2c-1.5-4.3-2.4-7.6-4.4-11.8h-15c-1.9,4.3-2.9,7.5-4.3,11.9c-0.6-0.1-1.8-0.3-2.9-0.3
		c-1.9-0.1-4.9,0.3-4.9,0.3L46,113.3z"/>
	<path class="st2" d="M173.5,119.5c3.7,0,7,0.4,8,4c0.1,0.4,0.2,1.3,0.2,1.8c-0.1,4.8-4.5,6.7-8.1,6.7h-3.2v-12.5H173.5z M162,113.3
		h14.2c0.3,0.1,4.9-0.3,8.2,1.5c2.2,1.1,3.9,3.3,4.6,5.1c0.9,2,1,3.1,1,4.9c0,1.1-0.2,2.1-0.4,3.2c-0.2,1-0.9,2.3-1.6,3.2
		c-1.5,2.1-3.7,3.5-5.6,4.3c-0.9,0.4-2,0.8-2.7,1c0.1,0.2,6.7,8.7,10.1,12.9c0.7,0.8,1.4,1.6,2.1,2.4c1.3,1.6,2.6,3.2,3.9,4.9
		c0,0-3.7-0.6-6.1-0.6c-1.9,0-4.8,0.4-4.8,0.4s-9.3-12.5-14.5-18.7v8.8l0.2,9.9c0,0-2.1-0.3-4.4-0.3c-2.2,0-4.4,0.3-4.4,0.3
		s0.3-4.3,0.5-7c0.5-9.5,0-24.3,0-24.3L162,113.3z"/>
	<path class="st2" d="M11.4,119.6c5,0,8.6,0.3,8.6,5.9c0,4-1.7,7.3-7.1,7.6c-0.3,0-0.9,0.1-1.1,0.1H8.8v-13.6
		C9.7,119.6,11.2,119.6,11.4,119.6 M0.2,113.3h15.5c0.8,0,1.6,0,3.6,0.3c6.9,1,9.3,6.8,9.3,11.9c0,6.1-3.2,11.8-11.3,13.1
		c-1.8,0.3-2.6,0.2-4.9,0.3H8.7l0.2,17.8c0,0-2.9-0.4-4.8-0.4c-1.6,0-2.1,0-4.1,0.1c0,0,0.5-7.6,0.7-12.4
		C1.1,131.9,0.5,120.7,0.2,113.3"/>
	<path class="st2" d="M216.7,126.8l5.2,12h-10.4L216.7,126.8z M216.4,113.3h3.3c5.6,13,11.1,25.9,16.7,38.8c0.6,1.5,1.4,3,2.1,4.5
		c0,0-3.8-0.4-6.2-0.3c-1.5,0-2.1,0.1-3.8,0.2c-1.5-4.3-2.4-7.6-4.4-11.8h-15c-1.9,4.3-2.9,7.5-4.3,11.9c-0.6-0.1-1.8-0.3-2.9-0.3
		c-1.9-0.1-4.9,0.3-4.9,0.3L216.4,113.3z"/>
	<path class="st2" d="M232.5,111.2v-4.3h1.8c0.5,0,0.8,0,1,0.1c0.2,0.1,0.4,0.2,0.5,0.4c0.1,0.2,0.2,0.4,0.2,0.7
		c0,0.3-0.1,0.6-0.3,0.8c-0.2,0.2-0.5,0.3-0.8,0.4c0.2,0.1,0.3,0.2,0.5,0.4c0.1,0.1,0.3,0.4,0.5,0.7l0.5,0.8h-1l-0.6-0.9
		c-0.2-0.3-0.4-0.5-0.5-0.6c-0.1-0.1-0.2-0.1-0.3-0.2c-0.1,0-0.2,0-0.4,0h-0.2v1.8H232.5z M233.3,108.7h0.6c0.4,0,0.7,0,0.8-0.1
		c0.1,0,0.2-0.1,0.2-0.2c0.1-0.1,0.1-0.2,0.1-0.3c0-0.1,0-0.3-0.1-0.4c-0.1-0.1-0.2-0.1-0.3-0.2c-0.1,0-0.3,0-0.6,0h-0.7V108.7z"/>
	<path d="M234.2,104.6c2.4,0,4.3,1.9,4.3,4.3c0,2.4-1.9,4.3-4.3,4.3c-2.4,0-4.3-1.9-4.3-4.3C229.8,106.5,231.8,104.6,234.2,104.6
		 M234.2,105.3c-2,0-3.6,1.6-3.6,3.6c0,2,1.6,3.6,3.6,3.6c2,0,3.6-1.6,3.6-3.6C237.8,106.9,236.2,105.3,234.2,105.3"/>
	<path class="st3" d="M42.7,200c0,0,74.9-21,153.2,0C195.9,200,129.9,187.3,42.7,200"/>
</g>
</svg>
